<svg width="599" height="363" viewBox="0 0 599 363" fill="none" xmlns="http://www.w3.org/2000/svg">
<rect width="599" height="363" fill="#FAFAFA"/>
<path d="M300 130.5C302.917 130.5 305.715 131.659 307.778 133.722C309.841 135.785 311 138.583 311 141.5V163.5H289V141.5C289 138.583 290.159 135.785 292.222 133.722C294.285 131.659 297.083 130.5 300 130.5ZM316.5 163.5V141.5C316.5 137.124 314.762 132.927 311.667 129.833C308.573 126.738 304.376 125 300 125C295.624 125 291.427 126.738 288.333 129.833C285.238 132.927 283.5 137.124 283.5 141.5V163.5C280.583 163.5 277.785 164.659 275.722 166.722C273.659 168.785 272.5 171.583 272.5 174.5V202C272.5 204.917 273.659 207.715 275.722 209.778C277.785 211.841 280.583 213 283.5 213H316.5C319.417 213 322.215 211.841 324.278 209.778C326.341 207.715 327.5 204.917 327.5 202V174.5C327.5 171.583 326.341 168.785 324.278 166.722C322.215 164.659 319.417 163.5 316.5 163.5ZM283.5 169H316.5C317.959 169 319.358 169.579 320.389 170.611C321.421 171.642 322 173.041 322 174.5V202C322 203.459 321.421 204.858 320.389 205.889C319.358 206.921 317.959 207.5 316.5 207.5H283.5C282.041 207.5 280.642 206.921 279.611 205.889C278.579 204.858 278 203.459 278 202V174.5C278 173.041 278.579 171.642 279.611 170.611C280.642 169.579 282.041 169 283.5 169Z" fill="#696969"/>
</svg>
